<svg width="20" height="20" viewBox="0 0 20 20" fill="none" xmlns="http://www.w3.org/2000/svg">
<path d="M12.9167 4.58333C13.8333 4.58333 14.5833 3.83333 14.5833 2.91667C14.5833 2 13.8333 1.25 12.9167 1.25C12 1.25 11.25 2 11.25 2.91667C11.25 3.83333 12 4.58333 12.9167 4.58333ZM4.16667 10C1.83333 10 0 11.8333 0 14.1667C0 16.5 1.83333 18.3333 4.16667 18.3333C6.5 18.3333 8.33333 16.5 8.33333 14.1667C8.33333 11.8333 6.5 10 4.16667 10ZM4.16667 17.0833C2.58333 17.0833 1.25 15.75 1.25 14.1667C1.25 12.5833 2.58333 11.25 4.16667 11.25C5.75 11.25 7.08333 12.5833 7.08333 14.1667C7.08333 15.75 5.75 17.0833 4.16667 17.0833ZM9 8.75L11 6.75L11.6667 7.41667C12.75 8.5 14.1667 9.16667 15.9167 9.16667V7.5C14.6667 7.5 13.6667 7 12.9167 6.25L11.3333 4.66667C10.9167 4.33333 10.5 4.16667 10 4.16667C9.5 4.16667 9.08333 4.33333 8.83333 4.66667L6.5 7C6.16667 7.33333 6 7.75 6 8.16667C6 8.66667 6.16667 9.08333 6.5 9.33333L9.16667 11.6667V15.8333H10.8333V10.6667L9 8.75ZM15.8333 10C13.5 10 11.6667 11.8333 11.6667 14.1667C11.6667 16.5 13.5 18.3333 15.8333 18.3333C18.1667 18.3333 20 16.5 20 14.1667C20 11.8333 18.1667 10 15.8333 10ZM15.8333 17.0833C14.25 17.0833 12.9167 15.75 12.9167 14.1667C12.9167 12.5833 14.25 11.25 15.8333 11.25C17.4167 11.25 18.75 12.5833 18.75 14.1667C18.75 15.75 17.4167 17.0833 15.8333 17.0833Z" fill="#4A4A4A"/>
</svg>
