<svg width="20" height="20" viewBox="0 0 20 20" fill="none" xmlns="http://www.w3.org/2000/svg">
<path d="M13.3333 5.00008V10.0001C13.3333 10.9167 14.0833 11.6667 15 11.6667H15.8333V17.5001C15.8333 17.9584 16.2083 18.3334 16.6667 18.3334C17.125 18.3334 17.5 17.9584 17.5 17.5001V2.60841C17.5 2.06675 16.9917 1.66675 16.4667 1.79175C14.6667 2.23341 13.3333 3.75841 13.3333 5.00008ZM9.16667 7.50008H7.5V2.50008C7.5 2.04175 7.125 1.66675 6.66667 1.66675C6.20833 1.66675 5.83333 2.04175 5.83333 2.50008V7.50008H4.16667V2.50008C4.16667 2.04175 3.79167 1.66675 3.33333 1.66675C2.875 1.66675 2.5 2.04175 2.5 2.50008V7.50008C2.5 9.34175 3.99167 10.8334 5.83333 10.8334V17.5001C5.83333 17.9584 6.20833 18.3334 6.66667 18.3334C7.125 18.3334 7.5 17.9584 7.5 17.5001V10.8334C9.34167 10.8334 10.8333 9.34175 10.8333 7.50008V2.50008C10.8333 2.04175 10.4583 1.66675 10 1.66675C9.54167 1.66675 9.16667 2.04175 9.16667 2.50008V7.50008Z" fill="#4A4A4A"/>
</svg>
