<svg width="20" height="20" viewBox="0 0 20 20" fill="none" xmlns="http://www.w3.org/2000/svg">
<path d="M14.7436 2.30786V3.97453H13.0769V2.30786H6.41024V3.97453H4.74357V2.30786H3.0769V17.3079H4.74357V15.6412H6.41024V17.3079H13.0769V15.6412H14.7436V17.3079H16.4102V2.30786H14.7436ZM6.41024 13.9745H4.74357V12.3079H6.41024V13.9745ZM6.41024 10.6412H4.74357V8.97453H6.41024V10.6412ZM6.41024 7.30786H4.74357V5.64119H6.41024V7.30786ZM14.7436 13.9745H13.0769V12.3079H14.7436V13.9745ZM14.7436 10.6412H13.0769V8.97453H14.7436V10.6412ZM14.7436 7.30786H13.0769V5.64119H14.7436V7.30786Z" fill="#4A4A4A"/>
</svg>
