<svg width="20" height="20" viewBox="0 0 20 20" fill="none" xmlns="http://www.w3.org/2000/svg">
<path d="M10.128 1.73267C6.45355 1.73267 3.47681 4.70941 3.47681 8.38383C3.47681 12.0582 6.45355 15.035 10.128 15.035C13.8024 15.035 16.7791 12.0582 16.7791 8.38383C16.7791 4.70941 13.8024 1.73267 10.128 1.73267ZM10.128 13.6978C7.18611 13.6978 4.81402 11.3141 4.81402 8.38383C4.81402 5.44197 7.19774 3.06988 10.128 3.06988C13.0698 3.06988 15.4419 5.4536 15.4419 8.38383C15.4419 11.3257 13.0698 13.6978 10.128 13.6978Z" fill="#4A4A4A"/>
<path d="M15.558 2.34863C14.965 2.34863 14.4883 2.82537 14.4883 3.4184C14.4883 4.01142 14.965 4.48817 15.558 4.48817C16.1511 4.48817 16.6278 4.01142 16.6278 3.4184C16.6394 2.82537 16.1511 2.34863 15.558 2.34863ZM15.558 3.95328C15.2674 3.95328 15.0232 3.7091 15.0232 3.4184C15.0232 3.1277 15.2674 2.88351 15.558 2.88351C15.8487 2.88351 16.0929 3.1277 16.0929 3.4184C16.0929 3.7091 15.8604 3.95328 15.558 3.95328Z" fill="#4A4A4A"/>
<path d="M17.3256 7.31396C16.7326 7.31396 16.2559 7.79071 16.2559 8.38373C16.2559 8.97676 16.7326 9.4535 17.3256 9.4535C17.9186 9.4535 18.3954 8.97676 18.3954 8.38373C18.407 7.79071 17.9186 7.31396 17.3256 7.31396ZM17.3256 8.91862C17.0349 8.91862 16.7907 8.67443 16.7907 8.38373C16.7907 8.09304 17.0349 7.84885 17.3256 7.84885C17.6163 7.84885 17.8605 8.09304 17.8605 8.38373C17.8605 8.67443 17.628 8.91862 17.3256 8.91862Z" fill="#4A4A4A"/>
<path d="M15.4418 12.6277C14.8488 12.6277 14.3721 13.1044 14.3721 13.6975C14.3721 14.2905 14.8488 14.7672 15.4418 14.7672C16.0349 14.7672 16.5116 14.2905 16.5116 13.6975C16.5232 13.1044 16.0349 12.6277 15.4418 12.6277ZM15.4418 14.2323C15.1511 14.2323 14.907 13.9882 14.907 13.6975C14.907 13.4068 15.1511 13.1626 15.4418 13.1626C15.7325 13.1626 15.9767 13.4068 15.9767 13.6975C15.9767 13.9882 15.7442 14.2323 15.4418 14.2323Z" fill="#4A4A4A"/>
<path d="M10.1279 0.0932617C9.53485 0.0932617 9.05811 0.570007 9.05811 1.16303C9.05811 1.75605 9.53485 2.2328 10.1279 2.2328C10.7209 2.2328 11.1976 1.75605 11.1976 1.16303C11.1976 0.570007 10.7209 0.0932617 10.1279 0.0932617ZM10.1279 1.69791C9.83718 1.69791 9.59299 1.45373 9.59299 1.16303C9.59299 0.872333 9.83718 0.628146 10.1279 0.628146C10.4186 0.628146 10.6628 0.872333 10.6628 1.16303C10.6628 1.45373 10.4302 1.69791 10.1279 1.69791Z" fill="#4A4A4A"/>
<path d="M10.1279 14.814C9.53485 14.814 9.05811 15.2907 9.05811 15.8837C9.05811 16.4767 9.53485 16.9535 10.1279 16.9535C10.7209 16.9535 11.1976 16.4767 11.1976 15.8837C11.1976 15.2907 10.7209 14.814 10.1279 14.814ZM10.1279 16.4186C9.83718 16.4186 9.59299 16.1744 9.59299 15.8837C9.59299 15.593 9.83718 15.3488 10.1279 15.3488C10.4186 15.3488 10.6628 15.593 10.6628 15.8837C10.6628 16.1744 10.4302 16.4186 10.1279 16.4186Z" fill="#4A4A4A"/>
<path d="M4.8139 12.6277C4.22088 12.6277 3.74414 13.1044 3.74414 13.6975C3.74414 14.2905 4.22088 14.7672 4.8139 14.7672C5.40693 14.7672 5.88367 14.2905 5.88367 13.6975C5.88367 13.1044 5.40693 12.6277 4.8139 12.6277ZM4.8139 14.2323C4.52321 14.2323 4.27902 13.9882 4.27902 13.6975C4.27902 13.4068 4.52321 13.1626 4.8139 13.1626C5.1046 13.1626 5.34879 13.4068 5.34879 13.6975C5.34879 13.9882 5.1046 14.2323 4.8139 14.2323Z" fill="#4A4A4A"/>
<path d="M2.67451 7.31396C2.08148 7.31396 1.60474 7.79071 1.60474 8.38373C1.60474 8.97676 2.08148 9.4535 2.67451 9.4535C3.26753 9.4535 3.74427 8.97676 3.74427 8.38373C3.74427 7.79071 3.2559 7.31396 2.67451 7.31396ZM2.67451 8.91862C2.38381 8.91862 2.13962 8.67443 2.13962 8.38373C2.13962 8.09304 2.38381 7.84885 2.67451 7.84885C2.9652 7.84885 3.20939 8.09304 3.20939 8.38373C3.20939 8.67443 2.9652 8.91862 2.67451 8.91862Z" fill="#4A4A4A"/>
<path d="M4.98822 2.23242C4.3952 2.23242 3.91846 2.70916 3.91846 3.30219C3.91846 3.89521 4.3952 4.37196 4.98822 4.37196C5.58125 4.37196 6.05799 3.89521 6.05799 3.30219C6.05799 2.70916 5.58125 2.23242 4.98822 2.23242ZM4.98822 3.83707C4.69753 3.83707 4.45334 3.59289 4.45334 3.30219C4.45334 3.01149 4.69753 2.7673 4.98822 2.7673C5.27892 2.7673 5.52311 3.01149 5.52311 3.30219C5.52311 3.59289 5.27892 3.83707 4.98822 3.83707Z" fill="#4A4A4A"/>
<path d="M10.1279 7.31396C9.53485 7.31396 9.05811 7.79071 9.05811 8.38373C9.05811 8.97676 9.53485 9.4535 10.1279 9.4535C10.7209 9.4535 11.1976 8.97676 11.1976 8.38373C11.1976 7.79071 10.7209 7.31396 10.1279 7.31396ZM10.1279 8.91862C9.83718 8.91862 9.59299 8.67443 9.59299 8.38373C9.59299 8.09304 9.83718 7.84885 10.1279 7.84885C10.4186 7.84885 10.6628 8.09304 10.6628 8.38373C10.6628 8.67443 10.4302 8.91862 10.1279 8.91862Z" fill="#4A4A4A"/>
<path d="M16.2677 7.90698H4.2793V8.80233H16.2677V7.90698Z" fill="#4A4A4A"/>
<path d="M16.2672 18.5349H4.03467V19.9186H16.2672V18.5349Z" fill="#4A4A4A"/>
<path d="M10.1279 2.25574C10.7187 2.25574 11.1976 1.7768 11.1976 1.18598C11.1976 0.595163 10.7187 0.116211 10.1279 0.116211C9.53706 0.116211 9.05811 0.595163 9.05811 1.18598C9.05811 1.7768 9.53706 2.25574 10.1279 2.25574Z" fill="#4A4A4A"/>
<path d="M15.5815 4.34876C16.1723 4.34876 16.6513 3.86981 16.6513 3.279C16.6513 2.68818 16.1723 2.20923 15.5815 2.20923C14.9907 2.20923 14.5117 2.68818 14.5117 3.279C14.5117 3.86981 14.9907 4.34876 15.5815 4.34876Z" fill="#4A4A4A"/>
<path d="M17.3256 9.46522C17.9164 9.46522 18.3954 8.98627 18.3954 8.39545C18.3954 7.80464 17.9164 7.32568 17.3256 7.32568C16.7348 7.32568 16.2559 7.80464 16.2559 8.39545C16.2559 8.98627 16.7348 9.46522 17.3256 9.46522Z" fill="#4A4A4A"/>
<path d="M15.4653 14.8139C16.0561 14.8139 16.535 14.3349 16.535 13.7441C16.535 13.1533 16.0561 12.6743 15.4653 12.6743C14.8745 12.6743 14.3955 13.1533 14.3955 13.7441C14.3955 14.3349 14.8745 14.8139 15.4653 14.8139Z" fill="#4A4A4A"/>
<path d="M10.1279 16.9069C10.7187 16.9069 11.1976 16.4279 11.1976 15.8371C11.1976 15.2463 10.7187 14.7673 10.1279 14.7673C9.53706 14.7673 9.05811 15.2463 9.05811 15.8371C9.05811 16.4279 9.53706 16.9069 10.1279 16.9069Z" fill="#4A4A4A"/>
<path d="M4.76752 14.8139C5.35834 14.8139 5.83729 14.3349 5.83729 13.7441C5.83729 13.1533 5.35834 12.6743 4.76752 12.6743C4.17671 12.6743 3.69775 13.1533 3.69775 13.7441C3.69775 14.3349 4.17671 14.8139 4.76752 14.8139Z" fill="#4A4A4A"/>
<path d="M2.67451 9.46522C3.26532 9.46522 3.74427 8.98627 3.74427 8.39545C3.74427 7.80464 3.26532 7.32568 2.67451 7.32568C2.08369 7.32568 1.60474 7.80464 1.60474 8.39545C1.60474 8.98627 2.08369 9.46522 2.67451 9.46522Z" fill="#4A4A4A"/>
<path d="M4.88398 4.34876C5.47479 4.34876 5.95375 3.86981 5.95375 3.279C5.95375 2.68818 5.47479 2.20923 4.88398 2.20923C4.29316 2.20923 3.81421 2.68818 3.81421 3.279C3.81421 3.86981 4.29316 4.34876 4.88398 4.34876Z" fill="#4A4A4A"/>
<path d="M10.535 2.3606H9.63965V14.349H10.535V2.3606Z" fill="#4A4A4A"/>
<path d="M6.283 3.91548L5.6499 4.54858L14.1269 13.0256L14.76 12.3925L6.283 3.91548Z" fill="#4A4A4A"/>
<path d="M14.1269 3.91585L5.6499 12.3928L6.283 13.0259L14.76 4.54895L14.1269 3.91585Z" fill="#4A4A4A"/>
<path d="M7.56987 13.6047L8.74429 14.0931L6.5001 19.0699L5.32568 18.5931L7.56987 13.6047Z" fill="#4A4A4A"/>
<path d="M15.023 18.8605L13.8486 19.3373L11.5928 14.3605L12.7672 13.8838L15.023 18.8605Z" fill="#4A4A4A"/>
</svg>
