<svg width="20" height="20" viewBox="0 0 20 20" fill="none" xmlns="http://www.w3.org/2000/svg">
<path d="M18.4751 7.64168C18.4751 4.41668 15.8667 1.80835 12.6417 1.80835C9.41675 1.80835 6.80841 4.41668 6.80841 7.64168C6.80841 10.5333 8.90841 12.925 11.6667 13.3833V16.6667H5.00008V14.1667H5.83341V10.8333C5.83341 10.375 5.45841 10 5.00008 10H2.50008C2.04175 10 1.66675 10.375 1.66675 10.8333V14.1667H2.50008V18.3333H15.8334V16.6667H13.3334V13.4333C16.2251 13.0917 18.4751 10.6333 18.4751 7.64168ZM3.75008 9.16668C4.44175 9.16668 5.00008 8.60835 5.00008 7.91668C5.00008 7.22502 4.44175 6.66668 3.75008 6.66668C3.05841 6.66668 2.50008 7.22502 2.50008 7.91668C2.50008 8.60835 3.05841 9.16668 3.75008 9.16668Z" fill="#4A4A4A"/>
</svg>
