<svg width="20" height="20" viewBox="0 0 20 20" fill="none" xmlns="http://www.w3.org/2000/svg">
<path d="M9.99984 3.3335H4.1665C2.78317 3.3335 1.6665 4.45016 1.6665 5.8335V12.5002C1.6665 13.8835 2.78317 15.0002 4.1665 15.0002L3.33317 15.8335V16.6668H4.1665L5.83317 14.9752L7.49984 15.0002V10.8335H3.33317V4.9835L10.8332 5.00016V6.66683H12.4998V5.8335C12.4998 4.45016 11.3832 3.3335 9.99984 3.3335ZM4.1665 11.6668C4.62484 11.6668 4.99984 12.0418 4.99984 12.5002C4.99984 12.9585 4.62484 13.3335 4.1665 13.3335C3.70817 13.3335 3.33317 12.9585 3.33317 12.5002C3.33317 12.0418 3.70817 11.6668 4.1665 11.6668ZM17.1415 8.05016C17.0248 7.71683 16.7082 7.50016 16.3332 7.50016H10.3415C9.95817 7.50016 9.64984 7.71683 9.52484 8.05016L8.33317 11.4752L8.3415 16.0668C8.3415 16.3835 8.59984 16.6668 8.9165 16.6668H9.43317C9.74984 16.6668 9.99984 16.3502 9.99984 16.0335V15.0002H16.6665V16.0335C16.6665 16.3502 16.9248 16.6668 17.2415 16.6668H17.7498C18.0665 16.6668 18.3248 16.3835 18.3248 16.0668L18.3332 14.9252V11.4752L17.1415 8.05016ZM10.3415 8.3335H16.3332L17.1915 10.8335H9.48317L10.3415 8.3335ZM9.99984 13.3335C9.5415 13.3335 9.1665 12.9585 9.1665 12.5002C9.1665 12.0418 9.5415 11.6668 9.99984 11.6668C10.4582 11.6668 10.8332 12.0418 10.8332 12.5002C10.8332 12.9585 10.4582 13.3335 9.99984 13.3335ZM16.6665 13.3335C16.2082 13.3335 15.8332 12.9585 15.8332 12.5002C15.8332 12.0418 16.2082 11.6668 16.6665 11.6668C17.1248 11.6668 17.4998 12.0418 17.4998 12.5002C17.4998 12.9585 17.1248 13.3335 16.6665 13.3335Z" fill="#4A4A4A"/>
</svg>
